<?xml version="1.0" encoding="UTF-8" standalone="no"?>
<svg width="124px" height="81px" viewBox="0 0 124 81" version="1.1" xmlns="http://www.w3.org/2000/svg" xmlns:xlink="http://www.w3.org/1999/xlink" xmlns:sketch="http://www.bohemiancoding.com/sketch/ns">
    <!-- Generator: Sketch 3.3.2 (12043) - http://www.bohemiancoding.com/sketch -->
    <title>Group Copy 7</title>
    <desc>Created with Sketch.</desc>
    <defs></defs>
    <g id="INTERNAL" stroke="none" stroke-width="1" fill="none" fill-rule="evenodd" sketch:type="MSPage">
        <g id="INVENTORY" sketch:type="MSArtboardGroup" transform="translate(-498.000000, -395.000000)" stroke="#FFFFFF">
            <g id="items" sketch:type="MSLayerGroup" transform="translate(481.000000, 213.000000)">
                <g id="Group-Copy-7" transform="translate(17.438761, 182.037001)" sketch:type="MSShapeGroup">
                    <path d="M1.64851411,59.7727086 L1.07938938,59.7727086 C0.52307414,59.7727086 0.072091532,60.2206499 0.072091532,60.767598 L0.072091532,74.3045941 C0.072091532,74.8540563 0.484295317,75.4528148 1.00860217,75.6442062 C1.00860217,75.6442062 7.16911271,77.9847056 10.5815754,78.4048384 C17.9581687,79.3130237 32.7161745,78.9431558 32.7161745,78.9431558 C33.2608738,78.9316913 33.7024399,78.4756655 33.7024399,77.9307264 L33.7024399,74.220918 C33.7024399,73.6732331 34.1537923,73.2775613 34.7008716,73.3377267 C34.7008716,73.3377267 43.3965691,74.23974 47.8902431,75.2994834 C55.8327916,77.1725752 58.4042454,80.5198867 71.5365817,79.9575159 C107.794301,78.4048384 121.328897,66.4222686 122.379845,64.352032 C122.484205,64.1464569 122.418827,61.1795044 122.418827,61.1795044 C122.397298,59.5321029 121.403224,59.1132735 120.107283,59.315786 C120.107283,59.315786 120.748322,60.1050156 120.107283,59.315786 C118.005386,56.7279902 118.472748,53.0661921 112.153315,50.3624599 C109.362593,49.1684662 104.604513,48.3627938 98.3357655,47.868848 C92.8672132,47.4379534 86.5869881,45.8857968 80.9055822,44.2070481 C75.2241763,42.5282995 68.4064849,38.6112193 64.4295008,35.8133048 C60.4525166,33.0153904 58.3042501,32.0546856 51.3622672,22.9428984 C44.4202843,13.8311112 42.5388997,2.59876564 42.2720178,1.67874866 C41.5092758,-0.950636977 9.77486546,2.78446017 5.85230765,3.35876032 C1.92974984,3.93306046 1.64851411,7.49923359 3.22493669,7.49923359 C4.80135927,7.49923359 27.273553,8.86927851 31.4773465,7.83416029 C32.7698417,7.51590363 34.1622928,6.48210124 37.1587524,5.59582873 C37.7146432,5.43141113 37.7132647,6.47941009 38.2950336,6.71499451 C38.8304223,6.9317975 37.6712881,7.45959045 38.2950336,7.2745774 C40.3462461,6.66615445 42.5009769,4.39367874 42.2720178,3.91708022 C41.7276837,2.78400129 35.4543307,1.11916578 35.4543307,1.11916578 C35.4543307,1.11916578 41.2028205,2.34087452 41.7038772,3.35876035 C41.7237376,3.39910643 42.1186084,3.98380179 41.7038772,4.47666322 C40.679513,5.69400487 38.1313018,7.35036366 37.726893,6.15541162 C37.1587524,4.47666296 32.6136277,7.2745774 32.6136277,7.2745774 C32.6136277,7.2745774 30.9080988,8.37047265 30.3410654,8.39374317 C16.7056912,8.95332606 2.69946249,7.49923343 2.69946249,7.49923343 C2.69946249,7.49923343 4.90070689,21.0714046 4.80135926,26.6489224 C4.72554883,30.9050287 2.1739883,34.4123098 1.64851411,39.5879014 C1.12303991,44.763493 1.64851411,59.7727086 1.64851411,59.7727086 Z" id="Path-124" stroke-width="0.7"></path>
                    <path d="M36.5906123,20.144984 C37.8457138,20.144984 38.8631746,19.1428488 38.8631746,17.9066524 C38.8631746,16.670456 37.8457138,15.6683209 36.5906123,15.6683209 C35.3355107,15.6683209 34.3180499,16.670456 34.3180499,17.9066524 C34.3180499,19.1428488 35.3355107,20.144984 36.5906123,20.144984 Z M41.135737,29.0983102 C42.3908385,29.0983102 43.4082994,28.096175 43.4082994,26.8599786 C43.4082994,25.6237822 42.3908385,24.6216471 41.135737,24.6216471 C39.8806355,24.6216471 38.8631746,25.6237822 38.8631746,26.8599786 C38.8631746,28.096175 39.8806355,29.0983102 41.135737,29.0983102 Z M47.9534241,36.9324706 C49.2085256,36.9324706 50.2259864,35.9303354 50.2259864,34.694139 C50.2259864,33.4579427 49.2085256,32.4558075 47.9534241,32.4558075 C46.6983225,32.4558075 45.6808617,33.4579427 45.6808617,34.694139 C45.6808617,35.9303354 46.6983225,36.9324706 47.9534241,36.9324706 Z M55.9073923,43.6474653 C57.1624939,43.6474653 58.1799547,42.6453301 58.1799547,41.4091337 C58.1799547,40.1729373 57.1624939,39.1708022 55.9073923,39.1708022 C54.6522908,39.1708022 53.63483,40.1729373 53.63483,41.4091337 C53.63483,42.6453301 54.6522908,43.6474653 55.9073923,43.6474653 Z M66.1339229,49.2432941 C67.3890245,49.2432941 68.4064853,48.241159 68.4064853,47.0049626 C68.4064853,45.7687662 67.3890245,44.766631 66.1339229,44.766631 C64.8788214,44.766631 63.8613606,45.7687662 63.8613606,47.0049626 C63.8613606,48.241159 64.8788214,49.2432941 66.1339229,49.2432941 Z" id="Oval-27" stroke-width="0.5"></path>
                    <path d="M1.36589569,59.875369 C0.797755103,70.5074439 31.4773473,64.911615 47.3852835,68.8286952 C63.2932197,72.7457754 66.4343087,75.7165498 81.4737189,73.8649412 C86.0188462,73.3053583 103.631204,71.6266096 120.67542,59.3157861" id="Path-125"></path>
                    <path d="M31.477347,7.83416037 C31.477347,7.83416037 36.2735907,5.11602173 37.7268935,6.71499465 C39.6874923,8.87211204 40.8666541,15.2145487 42.2720182,17.9066524 C44.5804254,22.328618 46.8171429,26.3003957 51.3622676,30.7770588 C60.9296341,40.2003154 70.0047375,44.5365823 70.0047375,44.5365823 C71.9460257,45.590782 75.2225543,45.886328 77.3272553,45.1953285 L80.3374377,44.2070481" id="Path-126" stroke-width="0.7"></path>
                </g>
            </g>
        </g>
    </g>
</svg>