<?xml version="1.0" encoding="UTF-8" standalone="no"?>
<svg width="66px" height="83px" viewBox="0 0 66 83" version="1.1" xmlns="http://www.w3.org/2000/svg" xmlns:xlink="http://www.w3.org/1999/xlink" xmlns:sketch="http://www.bohemiancoding.com/sketch/ns">
    <!-- Generator: Sketch 3.3.2 (12043) - http://www.bohemiancoding.com/sketch -->
    <title>Group Copy 4</title>
    <desc>Created with Sketch.</desc>
    <defs></defs>
    <g id="INTERNAL" stroke="none" stroke-width="1" fill="none" fill-rule="evenodd" sketch:type="MSPage">
        <g id="INVENTORY" sketch:type="MSArtboardGroup" transform="translate(-756.000000, -393.000000)">
            <g id="items" sketch:type="MSLayerGroup" transform="translate(481.000000, 213.000000)">
                <g id="Group-Copy-4" transform="translate(276.022634, 180.901416)" sketch:type="MSShapeGroup">
                    <path d="M15.2911705,5.47164643 C15.2911705,5.47164643 17.3390951,2.86610051 33.0398505,2.86610051 C48.7406059,2.86610051 50.7885306,5.47164643 50.7885306,5.47164643 L61.616932,5.47164643 C62.7244062,5.47164643 63.6221915,6.372869 63.6221915,7.47325267 L63.6221915,76.0308606 C63.6221915,78.7931776 61.3803959,81.032478 58.6177464,81.0324779 L36.5096993,81.0324774 L36.5895865,28.6610057 L33.0398505,28.4004511 L30.0362278,28.6610057 L30.0362278,81.0324766 L36.5096978,81.0324766 L5.14000966,81.0324766 C4.03551826,81.0324766 3.14015108,80.1417608 3.14015108,79.032538 L3.14015108,78.357538 L2.26434934,78.3575385 C1.16458873,78.357539 0.273056616,77.45826 0.273056616,76.3481065 L0.273056616,53.3386861 C0.273056616,52.2289069 1.16450696,51.3292532 2.26434934,51.3292532 L3.14015108,51.3292532 L2.26434934,51.3292536 C1.16458873,51.3292541 0.273056616,52.2285339 0.273056616,53.3386873 L0.273056616,76.3481053 C0.273056616,77.4578844 1.16753281,78.3575381 2.26734619,78.3575382 L13.2968809,78.3575392 C14.3982966,78.3575393 15.2911705,77.45826 15.2911705,76.3481065 L15.2911703,53.3386861 C15.2911703,52.2289069 14.3976769,51.3292533 13.2846766,51.3292534 L3.14015108,51.3292546 L3.14015108,7.47157758 C3.14015108,6.36704611 4.03364455,5.47164644 5.14664481,5.47164644 L15.2911705,5.47164643 C15.2911705,5.47164643 15.2083403,4.34744478 15.8372837,3.38720969 C17.2025668,1.30277296 20.8972952,3.66069731e-10 33.0398505,0 C49.6963041,-5.02153238e-10 50.4249127,2.55710317 50.7885306,5.47164643 C52.1538136,16.4149393 53.2460401,32.0482148 53.2460401,32.0482148 C53.2460401,32.0482148 40.1480787,28.4004505 33.0398505,28.4004505 C26.3132102,28.4004505 13.1067176,32.0482148 13.1067176,32.0482148 L15.2911705,5.47164643 C15.2911705,5.47164643 25.1138683,27.1889093 33.0398505,27.3582321 C40.3963762,27.5153897 50.7885306,5.47164643 50.7885306,5.47164643" id="Path-117" stroke="#FFFFFF"></path>
                    <ellipse id="Oval-13" fill="#FFFFFF" cx="33.0398505" cy="27.8793413" rx="1.36528308" ry="1.30277296"></ellipse>
                    <ellipse id="Oval-13-Copy" fill="#FFFFFF" cx="33.0398505" cy="51.8503638" rx="1.36528308" ry="1.30277296"></ellipse>
                    <path d="M7.91864186,62.4914133 C8.52186188,62.4914133 9.01086833,62.0247962 9.01086833,61.4491949 C9.01086833,60.8735936 8.52186188,60.4069766 7.91864186,60.4069766 C7.31542184,60.4069766 6.8264154,60.8735936 6.8264154,61.4491949 C6.8264154,62.0247962 7.31542184,62.4914133 7.91864186,62.4914133 Z" id="Oval-13-Copy-4" fill="#FFFFFF"></path>
                    <ellipse id="Oval-13-Copy-3" fill="#FFFFFF" cx="33.3129071" cy="76.3424954" rx="1.36528308" ry="1.30277296"></ellipse>
                    <path d="M0.546113232,64.6175388 L12.8336609,64.6175388 C14.4720006,64.6175388 15.2911705,63.5753204 15.2911705,63.5753204" id="Path-114" stroke="#FFFFFF"></path>
                </g>
            </g>
        </g>
    </g>
</svg>