<?xml version="1.0" encoding="UTF-8" standalone="no"?>
<svg width="79px" height="113px" viewBox="0 0 79 113" version="1.1" xmlns="http://www.w3.org/2000/svg" xmlns:xlink="http://www.w3.org/1999/xlink" xmlns:sketch="http://www.bohemiancoding.com/sketch/ns">
    <!-- Generator: Sketch 3.3.3 (12072) - http://www.bohemiancoding.com/sketch -->
    <title>Wardrobe</title>
    <desc>Created with Sketch.</desc>
    <defs></defs>
    <g id="CLIENT" stroke="none" stroke-width="1" fill="none" fill-rule="evenodd" sketch:type="MSPage">
        <g id="NOTES" sketch:type="MSArtboardGroup" transform="translate(-862.000000, -557.000000)" stroke="#FFFFFF">
            <g id="Wardrobe" sketch:type="MSLayerGroup" transform="translate(862.531250, 556.719679)">
                <path d="M1.83973665,3 L37.7146014,3 L37.7146014,82.3351854 L1.83973665,82.3351854 L1.83973665,3 Z" id="Path-46" sketch:type="MSShapeGroup"></path>
                <path d="M39.554338,3 L75.4292027,3 L75.4292027,82.3351854 L39.554338,82.3351854 L39.554338,3 Z" id="Path-46-Copy" sketch:type="MSShapeGroup"></path>
                <path d="M1.83973665,84.3185651 L75.4292027,84.3185651 L75.4292027,92.2520836 L1.83973665,92.2520836 L1.83973665,84.3185651 Z" id="Path-48" sketch:type="MSShapeGroup"></path>
                <path d="M1.83973665,94.0692596 L75.4292027,94.0692596 L75.4292027,102.002778 L1.83973665,102.002778 L1.83973665,94.0692596 Z" id="Path-48-Copy" sketch:type="MSShapeGroup"></path>
                <path d="M32.1953914,52.5844909 L32.1953914,77.3767363" id="Path-50" sketch:type="MSShapeGroup"></path>
                <path d="M45.073548,52.5844909 L45.073548,77.3767363" id="Path-50-Copy" sketch:type="MSShapeGroup"></path>
                <path d="M29.4357864,87.1274309 L47.833153,87.1274309" id="Path-50-Copy-2" sketch:type="MSShapeGroup"></path>
                <path d="M29.4357864,97.0443291 L47.833153,97.0443291" id="Path-50-Copy-3" sketch:type="MSShapeGroup"></path>
                <path d="M6.43907828,104.977848 L13.7980249,104.977848 L11.9582882,111.919676 L8.27881494,111.919676 L6.43907828,104.977848 Z" id="Path-54" sketch:type="MSShapeGroup"></path>
                <path d="M63.4709145,104.977848 L70.8298611,104.977848 L68.9901245,111.919676 L65.3106512,111.919676 L63.4709145,104.977848 Z" id="Path-54-Copy" sketch:type="MSShapeGroup"></path>
                <path d="M0,0.850416723 L0,103.490313 L77.2689394,103.490313 L77.2689394,0.850416723 L0,0.850416723 Z" id="Path-56" sketch:type="MSShapeGroup"></path>
            </g>
        </g>
    </g>
</svg>