<?xml version="1.0" encoding="UTF-8" standalone="no"?>
<svg width="98px" height="83px" viewBox="0 0 98 83" version="1.1" xmlns="http://www.w3.org/2000/svg" xmlns:xlink="http://www.w3.org/1999/xlink" xmlns:sketch="http://www.bohemiancoding.com/sketch/ns">
    <!-- Generator: Sketch 3.3.2 (12043) - http://www.bohemiancoding.com/sketch -->
    <title>Group Copy</title>
    <desc>Created with Sketch.</desc>
    <defs>
        <linearGradient x1="50%" y1="8.08155293%" x2="50%" y2="65.2861926%" id="linearGradient-1">
            <stop stop-color="#FFFFFF" offset="0%"></stop>
            <stop stop-color="#FFFFFF" offset="100%"></stop>
        </linearGradient>
    </defs>
    <g id="INTERNAL" stroke="none" stroke-width="1" fill="none" fill-rule="evenodd" sketch:type="MSPage">
        <g id="INVENTORY" sketch:type="MSArtboardGroup" transform="translate(-967.000000, -393.000000)">
            <g id="items" sketch:type="MSLayerGroup" transform="translate(481.000000, 213.000000)">
                <g id="Group-Copy" transform="translate(486.848014, 180.901416)" sketch:type="MSShapeGroup">
                    <g id="Group">
                        <path d="M48.2477369,13.9200398 C48.2477369,13.9200398 47.1666071,10.0224287 46.6117058,7.23842071 C46.5060283,6.70822347 42.1724958,7.23842071 41.0626933,5.56801593 C40.6061096,4.88079496 40.491381,4.26125756 40.6300544,3.71127357 C41.151926,1.64151163 45.2626104,0.556801593 48.2477369,0.556801593 C52.0260812,0.556801593 56.5999285,1.67040478 55.4901261,5.56801593 C54.9568426,7.44090033 50.0504026,6.69010142 49.941113,7.23842071 C49.3862121,10.0224287 48.2477369,13.9200398 48.2477369,13.9200398 Z" id="Path-134" stroke="#FFFFFF" stroke-width="0.5"></path>
                        <path d="M47.7215084,13.9200398 C42.1724958,13.9200398 38.8430883,12.2496351 38.8430883,5.56801593 C38.8430883,0.556801593 43.2822983,-3.65885193e-09 47.7215084,1.54543487e-17 C52.1607185,3.65885196e-09 57.7097311,0.556801593 57.7097311,5.56801593 C57.7097311,11.6928335 54.3803236,13.9200398 48.831311,13.9200398" id="Path-135" stroke="#FFFFFF" stroke-width="0.5"></path>
                        <path d="M38.8430883,6.12481753 C38.8430883,6.12481753 27.745063,5.01121434 21.6411492,17.817651 C16.1027162,29.4376693 0,61.8049769 0,61.8049769 C0,61.8049769 1.95992265,63.8614805 3.32940757,64.5889848 C5.10436313,65.5318853 9.43332143,66.2593896 9.43332143,66.2593896 C9.43332143,66.2593896 23.8607542,39.5329131 28.8548656,27.2832781 C28.8548656,20.0448573 28.8548656,17.6997928 28.8548656,17.6997928 C28.8548656,17.149858 28.8608857,17.1443318 28.8677355,17.7015313 C28.8677355,17.7015313 28.9568693,23.5303343 28.8548656,27.2832781 C28.412073,43.5746057 27.1901618,77.9522231 27.1901618,77.9522231 C27.1901618,77.9522231 37.944819,80.4048358 46.6068587,80.7060321 C47.1735307,80.7257365 47.7312467,80.7362331 48.2764097,80.7362331 C57.1548299,80.7362331 68.8077563,78.5090247 68.8077563,78.5090247 L67.7158357,17.6998895 C67.7059598,17.1499013 67.6979538,17.1586241 67.6979538,17.6993161 L67.6979538,27.2832781 L86.5645967,65.7025901 C86.5645967,65.7025901 90.4813719,65.3597291 92.1136093,64.5889869 C93.6258124,63.8749249 95.9979181,61.2481774 95.9979181,61.2481774 C95.9979181,61.2481774 80.0375644,29.2445979 74.356769,16.7040478 C68.8077563,4.45441273 58.2646324,6.68161912 58.2646324,6.68161912" id="Path-136" stroke="#FFFFFF"></path>
                        <path d="M31.0744706,26.1696749 L44.3921009,26.1696749 L44.3921009,31.1808892 L31.0744706,31.1808892 L31.0744706,26.1696749 Z" id="Path-137" stroke="#FFFFFF"></path>
                        <path d="M29.9646681,59.5777705 L43.2822983,59.5777705 L43.2822983,64.5889848 L29.9646681,64.5889848 L29.9646681,59.5777705 Z" id="Path-137-Copy" stroke="#FFFFFF"></path>
                        <path d="M53.270521,59.5777705 L66.5881513,59.5777705 L66.5881513,64.5889848 L53.270521,64.5889848 L53.270521,59.5777705 Z" id="Path-137-Copy-2" stroke="#FFFFFF"></path>
                        <path d="M53.270521,26.1696749 L65.4783488,26.1696749 L65.4783488,31.1808892 L53.270521,31.1808892 L53.270521,26.1696749 Z" id="Path-137-Copy-3" stroke="#FFFFFF"></path>
                        <path d="M46.6117059,13.9200398 L46.6117059,80.736231" id="Path-141" stroke="#FFFFFF"></path>
                        <path d="M50.4960147,80.1794294 L49.9411135,13.9200398 L50.4960147,80.1794294 Z" id="Path-142" stroke="url(#linearGradient-1)"></path>
                    </g>
                </g>
            </g>
        </g>
    </g>
</svg>