<?xml version="1.0" encoding="UTF-8" standalone="no"?>
<svg width="49px" height="91px" viewBox="0 0 49 91" version="1.1" xmlns="http://www.w3.org/2000/svg" xmlns:xlink="http://www.w3.org/1999/xlink" xmlns:sketch="http://www.bohemiancoding.com/sketch/ns">
    <!-- Generator: Sketch 3.3.2 (12043) - http://www.bohemiancoding.com/sketch -->
    <title>Path 123 Copy 3</title>
    <desc>Created with Sketch.</desc>
    <defs></defs>
    <g id="INTERNAL" stroke="none" stroke-width="1" fill="none" fill-rule="evenodd" sketch:type="MSPage">
        <g id="INVENTORY" sketch:type="MSArtboardGroup" transform="translate(-765.000000, -576.000000)" stroke="#FFFFFF" stroke-width="2">
            <g id="items" sketch:type="MSLayerGroup" transform="translate(481.000000, 213.000000)">
                <path d="M331.062893,365.450114 C331.062893,365.450114 331.058231,365.897004 331.052397,366.456217 L330.166722,451.35465 C330.160926,451.910305 329.707984,452.360753 329.15547,452.360753 L313.023649,452.360753 C312.470947,452.360753 312.01122,451.918257 311.996232,451.354485 C311.996232,451.354485 310.20956,383.067136 309.302893,383.067136 L307.48956,383.067136 C306.679728,383.067136 306.131702,452.095885 306.131702,452.095885 C306.130519,452.242168 306.004115,452.360753 305.820993,452.360753 L286.990452,452.360753 C286.711363,452.360753 286.483208,452.13837 286.480866,451.865376 L285.738175,365.280059 C285.733417,364.725337 286.182335,364.275646 286.732765,364.275646 L308.396227,364.275646 L308.396227,383.067136 L308.396227,379.543731 L311.945894,379.083918 C312.489158,379.013546 312.92956,378.50103 312.92956,377.947423 L312.92956,364.275646 L308.396227,364.275646 L330.059688,364.275646 C330.613743,364.275646 331.062893,364.728545 331.062893,365.285439 L331.062893,366.624583 L321.240671,366.624583 L321.240671,364.275646 L321.240671,366.624583 L295.551782,366.624583 L295.551782,364.275646 L295.551782,366.624583 L285.72956,366.624583" id="Path-123-Copy-3" sketch:type="MSShapeGroup"></path>
            </g>
        </g>
    </g>
</svg>