<?xml version="1.0" encoding="UTF-8" standalone="no"?>
<svg width="49px" height="91px" viewBox="0 0 49 91" version="1.1" xmlns="http://www.w3.org/2000/svg" xmlns:xlink="http://www.w3.org/1999/xlink" xmlns:sketch="http://www.bohemiancoding.com/sketch/ns">
    <!-- Generator: Sketch 3.3.1 (12005) - http://www.bohemiancoding.com/sketch -->
    <title>Path 123 Copy 4</title>
    <desc>Created with Sketch.</desc>
    <defs></defs>
    <g id="INTERNAL" stroke="none" stroke-width="1" fill="none" fill-rule="evenodd" sketch:type="MSPage">
        <g id="INVENTORY" sketch:type="MSArtboardGroup" transform="translate(-995.000000, -576.000000)" stroke="#FFFFFF" stroke-width="2">
            <g id="items" sketch:type="MSLayerGroup" transform="translate(480.000000, 213.000000)">
                <path d="M562.288014,365.450114 C562.288014,365.450114 562.283352,365.897004 562.277518,366.456217 L561.391843,451.35465 C561.386046,451.910305 560.933105,452.360753 560.380591,452.360753 L544.24877,452.360753 C543.696068,452.360753 543.236341,451.918257 543.221353,451.354485 C543.221353,451.354485 541.434681,383.067136 540.528014,383.067136 L538.714681,383.067136 C537.904848,383.067136 537.356822,452.095885 537.356822,452.095885 C537.35564,452.242168 537.229236,452.360753 537.046114,452.360753 L518.215573,452.360753 C517.936483,452.360753 517.708329,452.13837 517.705987,451.865376 L516.963296,365.280059 C516.958538,364.725337 517.407456,364.275646 517.957886,364.275646 L539.621347,364.275646 L539.621347,383.067136 L539.621347,379.543731 L543.171015,379.083918 C543.714278,379.013546 544.154681,378.50103 544.154681,377.947423 L544.154681,364.275646 L539.621347,364.275646 L561.284809,364.275646 C561.838864,364.275646 562.288014,364.728545 562.288014,365.285439 L562.288014,366.624583 L552.465792,366.624583 L552.465792,364.275646 L552.465792,366.624583 L526.776903,366.624583 L526.776903,364.275646 L526.776903,366.624583 L516.954681,366.624583" id="Path-123-Copy-4" sketch:type="MSShapeGroup"></path>
            </g>
        </g>
    </g>
</svg>