<?xml version="1.0" encoding="UTF-8" standalone="no"?>
<svg width="68px" height="82px" viewBox="0 0 68 82" version="1.1" xmlns="http://www.w3.org/2000/svg" xmlns:xlink="http://www.w3.org/1999/xlink" xmlns:sketch="http://www.bohemiancoding.com/sketch/ns">
    <!-- Generator: Sketch 3.3.1 (12005) - http://www.bohemiancoding.com/sketch -->
    <title>Group Copy 8</title>
    <desc>Created with Sketch.</desc>
    <defs></defs>
    <g id="CLIENT" stroke="none" stroke-width="1" fill="none" fill-rule="evenodd" sketch:type="MSPage">
        <g id="Request---Order" sketch:type="MSArtboardGroup" transform="translate(-370.000000, -521.000000)">
            <g id="Request" sketch:type="MSLayerGroup" transform="translate(358.000000, 249.000000)">
                <g id="Item" sketch:type="MSShapeGroup">
                    <g id="items" transform="translate(0.000000, 147.000000)">
                        <g id="Group-Copy-8" transform="translate(13.252094, 125.590321)">
                            <path d="M24.6066424,3.91333597 L6.1516606,9.78333993 L0,45.0033637 L0.410110707,74.3533835 L8.61232484,74.3533835 L9.2274909,45.9816977 L12.3033212,38.3506925 L8.20221414,19.5666799 L14.3538747,47.9383657 L12.3033212,80.2233875 L32.8088565,78.2667195 L53.3143919,80.2233875 L51.2638384,47.9383657 L57.415499,19.5666799 L53.3143919,38.3506925 L56.3902222,45.9816977 L57.0053883,74.3533835 L65.2076024,74.3533835 L65.6177131,45.0033637 L59.4660525,9.78333993 L41.0110707,3.91333597 L43.0616242,14.6750099 L32.8088565,43.0466957 L22.5560889,14.6750099 L24.6066424,3.91333597 Z" id="Path-116" stroke="#FFFFFF"></path>
                            <path d="M46.3425099,25.241017 L46.3425099,23.8713494 L48.1880081,22.6973486 L50.1360339,23.8713494 L52.1865874,21.6211813 L54.237141,23.8713494 L54.237141,25.241017" id="Path-117" stroke="#FFFFFF" stroke-width="0.5"></path>
                            <path d="M24.6066424,3.91333597 L18.4549818,8.80500594 L20.5055353,10.7616739 L16.4044283,13.6966759 L32.8088565,44.0250297 L49.2132848,13.6966759 L45.1121778,10.7616739 L47.1627313,8.80500594 L40.7034877,3.91333597 L36.6023806,14.3815097 L32.8088565,9.97900673 L31.7835798,11.3486743 L29.5279709,33.2633558 L32.8088565,43.0466957 L35.6796315,33.2633558 L33.8341333,11.3486743 L32.8088565,9.97900673 L29.3229155,14.4793431 L25.0167531,4.30466957 L25.6319192,1.07616739 L32.8088565,9.97900673 L39.9857939,0.782667195 C39.9857939,0.782667195 39.7807386,1.83132599e-09 32.8088565,0 C25.8369745,-1.83132594e-09 25.6319192,0.782667195 25.6319192,0.782667195" id="Path-118" stroke="#FFFFFF"></path>
                            <path d="M39.9857939,0.782667195 L40.60096,4.20683617" id="Path-119" stroke="#000000"></path>
                            <ellipse id="Oval-17" fill="#FFFFFF" cx="2.08198851" cy="73.0815493" rx="0.512638384" ry="0.489166997"></ellipse>
                            <ellipse id="Oval-17-Copy-4" fill="#FFFFFF" cx="63.5111077" cy="73.0815493" rx="0.512638384" ry="0.489166997"></ellipse>
                            <ellipse id="Oval-17-Copy" fill="#FFFFFF" cx="2.08198851" cy="71.7118817" rx="0.512638384" ry="0.489166997"></ellipse>
                            <ellipse id="Oval-17-Copy-5" fill="#FFFFFF" cx="63.5111077" cy="71.7118817" rx="0.512638384" ry="0.489166997"></ellipse>
                            <ellipse id="Oval-17-Copy-2" fill="#FFFFFF" cx="2.08198851" cy="70.3422141" rx="0.512638384" ry="0.489166997"></ellipse>
                            <ellipse id="Oval-17-Copy-8" fill="#FFFFFF" cx="30.4586515" cy="58.5043728" rx="0.820221414" ry="0.782667195"></ellipse>
                            <ellipse id="Oval-17-Copy-9" fill="#FFFFFF" cx="30.4791571" cy="69.2856134" rx="0.840726949" ry="0.802233875"></ellipse>
                            <ellipse id="Oval-17-Copy-6" fill="#FFFFFF" cx="63.5111077" cy="70.3422141" rx="0.512638384" ry="0.489166997"></ellipse>
                            <ellipse id="Oval-17-Copy-3" fill="#FFFFFF" cx="2.08198851" cy="68.9725465" rx="0.512638384" ry="0.489166997"></ellipse>
                            <ellipse id="Oval-17-Copy-7" fill="#FFFFFF" cx="63.5111077" cy="68.9725465" rx="0.512638384" ry="0.489166997"></ellipse>
                            <path d="M33.0685933,43.0466957 L33.0685933,78.2667195" id="Line" stroke="#FFFFFF" stroke-linecap="square"></path>
                        </g>
                    </g>
                </g>
            </g>
        </g>
    </g>
</svg>