<?xml version="1.0" encoding="UTF-8" standalone="no"?>
<svg width="116px" height="67px" viewBox="0 0 116 67" version="1.1" xmlns="http://www.w3.org/2000/svg" xmlns:xlink="http://www.w3.org/1999/xlink" xmlns:sketch="http://www.bohemiancoding.com/sketch/ns">
    <!-- Generator: Sketch 3.3.2 (12043) - http://www.bohemiancoding.com/sketch -->
    <title>Path 129 Copy</title>
    <desc>Created with Sketch.</desc>
    <defs></defs>
    <g id="INTERNAL" stroke="none" stroke-width="1" fill="none" fill-rule="evenodd" sketch:type="MSPage">
        <g id="INVENTORY" sketch:type="MSArtboardGroup" transform="translate(-481.000000, -220.000000)" stroke="#FFFFFF" fill="#FFFFFF">
            <g id="items" sketch:type="MSLayerGroup" transform="translate(481.000000, 213.000000)">
                <g id="sunglasses-copy" transform="translate(0.438761, 8.129303)" sketch:type="MSShapeGroup">
                    <path d="M0.789300912,29.0943346 C0.565357904,29.1115148 0.44618647,29.120875 0.44618647,29.120875 L0.44618647,37.544038 C0.44618647,37.544038 5.51267434,37.5440382 6.27333903,51.2198914 C6.59343874,55.5918861 11.3029462,65.0344261 27.9499778,65.0344261 C44.5970093,65.0344261 48.9397132,52.6011818 49.6634972,51.2198914 C50.3872812,49.838601 51.8348491,39.4789231 57.625121,39.4789231 C63.4153928,39.4789231 64.8629608,49.838601 65.5867448,51.2198914 C66.3105288,52.6011818 69.5790819,65.0344242 87.1250808,65.0344251 C104.67108,65.0344261 109.051169,57.4361227 109.696077,51.2198914 C111.185136,36.8669348 114.804055,36.8669348 114.804055,36.8669348 L114.804055,30.5005355 L114.804055,30.5005353 L103.921847,1.27120488 C103.536167,0.235278231 102.981654,0.262813231 102.685744,1.32396608 L100.595554,8.81953047 C100.447996,9.3486849 100.543613,10.1756427 100.803466,10.6561357 C100.803466,10.6561357 101.092456,11.1905057 101.474495,11.8969339 C101.96878,12.8109127 102.61359,2.43756986 103.223512,3.56537299 C106.417859,9.47202529 111.041381,27.728488 111.610303,30.0014619 C106.41023,29.2159498 96.1021373,27.7759568 90.1954001,27.7395846 C79.5707858,27.6741609 67.0343127,31.8834558 58.348905,31.8834557 C49.6634972,31.8834556 38.1154947,27.8021813 27.9499778,27.7395846 C20.7119821,27.6950148 7.83069028,28.5761975 2.67235335,28.9535474 C3.35043105,26.9057052 10.1240245,6.50237892 12.0267299,2.87472778 C13.2573596,0.528439623 13.3515584,12.1836598 14.198082,10.4718246 C15.1506969,8.54545204 14.9218661,8.422367 14.9218661,8.422367 L12.5849407,0.385814371 C12.2785891,-0.667711575 11.6983326,-0.696013474 11.2932349,0.337501718 L0.378051591,28.1851198 C0.202416243,28.6332136 0.386819401,28.9980549 0.789300912,29.0943346 Z M104.850425,33.1163611 C107.745561,35.1882966 109.193129,39.3321677 109.193129,41.4041038 C109.193129,41.4041038 109.916913,50.3824887 105.574209,55.9076516 C102.679073,59.3608776 98.8621875,61.6356629 97.612585,62.1234584 C95.9521962,62.7716086 86.0320414,65.5766843 77.3466336,61.4328132 C73.0039297,58.6702324 69.9294492,56.0544078 67.0343132,49.8386011 C65.5867453,46.3853751 66.2397989,40.5252951 66.4898741,39.3321682 C67.213658,35.8789422 68.6267666,32.933126 71.5563617,31.7350708 C76.6228496,29.6631352 78.0704178,29.6631352 82.4131214,28.97249 C96.1650171,28.2818448 101.231505,29.6631353 104.850425,33.1163611 Z M10.9379082,33.2760694 C8.04277227,35.3480049 6.59520434,39.4918759 6.59520434,41.5638121 C6.59520434,41.5638121 5.87142018,50.542197 10.2141242,56.0673598 C13.1092598,59.5205858 16.9261456,61.7953711 18.1757481,62.2831666 C19.8361369,62.9313168 29.7562917,65.7363926 38.4416995,61.5925214 C42.7844034,58.8299406 45.8588839,56.2141161 48.7540198,49.9983093 C50.2015878,46.5450833 49.5485342,40.6850034 49.298459,39.4918764 C48.574675,36.0386505 47.1615665,33.0928343 44.2319713,31.894779 C39.1654835,29.8228434 37.7179153,29.8228434 33.3752117,29.1321982 C19.623316,28.441553 14.5568281,29.8228435 10.9379082,33.2760694 Z" id="Path-129-Copy"></path>
                </g>
            </g>
        </g>
    </g>
</svg>