<?xml version="1.0" encoding="UTF-8" standalone="no"?>
<svg width="93px" height="84px" viewBox="0 0 93 84" version="1.1" xmlns="http://www.w3.org/2000/svg" xmlns:xlink="http://www.w3.org/1999/xlink" xmlns:sketch="http://www.bohemiancoding.com/sketch/ns">
    <!-- Generator: Sketch 3.3.2 (12043) - http://www.bohemiancoding.com/sketch -->
    <title>Path 128 + Path 129 Copy 2</title>
    <desc>Created with Sketch.</desc>
    <defs></defs>
    <g id="INTERNAL" stroke="none" stroke-width="1" fill="none" fill-rule="evenodd" sketch:type="MSPage">
        <g id="INVENTORY" sketch:type="MSArtboardGroup" transform="translate(-737.000000, -213.000000)" stroke="#FFFFFF">
            <g id="items" sketch:type="MSLayerGroup" transform="translate(481.000000, 213.000000)">
                <g id="Path-128-+-Path-129-Copy-2" transform="translate(258.022634, 1.000000)" sketch:type="MSShapeGroup">
                    <path d="M24.275075,2.13929033 C24.275075,2.13929033 28.6545067,0.534822515 35.7710859,2.13929033 C38.5741301,2.77125046 35.7710859,6.96650442 46.7196692,6.9526937 C57.6682526,6.93888298 50.7976984,3.50611659 57.1208234,2.1392903 C63.4439484,0.772464015 66.8652725,2.02164976 68.0694084,2.13929033 C73.5437026,2.6741129 86.0348871,22.0278991 86.0348871,22.0278991 C88.2062984,25.2216929 89.7292628,30.9328887 89.4329798,34.7806704 C89.4329798,34.7806704 88.0792571,52.9044363 87.2294318,60.9697758 C87.176467,61.4724425 86.2846875,60.3871648 86.1345734,60.9697758 C85.9207668,61.799586 85.7704366,62.6706465 85.7704366,62.6706465 C85.669207,63.2081533 85.163742,63.5289854 84.6243864,63.3826146 L76.6961771,61.2310499 C76.1644606,61.0867522 75.9115781,60.5671614 76.1286653,60.0487524 C76.1286653,60.0487524 76.7475356,58.766594 76.8282776,57.7608403 C76.8414593,57.5966438 87.2832151,61.0338086 87.2294318,60.9697758 C87.0440935,60.7491178 76.1036501,57.962474 76.1383192,57.5306218 C76.6759828,50.8332774 77.7632537,37.2898136 77.7632537,37.2898136 C77.8515528,36.1899258 77.3595806,34.5904084 76.6747209,33.7301521 L70.8863031,26.459286 C70.5399222,26.0241949 70.2475882,26.111246 70.2330164,26.662722 C70.2330164,26.662722 69.3639696,60.0472523 68.6168381,77.5492718 C68.5970163,78.0136107 67.9594518,77.9553339 67.9594518,77.9553339 C67.4155059,78.0264463 67.1176841,78.503607 67.2971224,79.0295257 L67.4261923,79.407819 C67.7814307,80.4489937 67.1714782,81.2930326 66.0639629,81.2930325 L24.0908044,81.29303 C22.9832274,81.2930299 22.37302,80.4499199 22.7285753,79.4078178 L22.8576453,79.0295248 C23.0357969,78.507378 22.7321659,78.1160471 22.1882866,78.1416824 C22.1882866,78.1416824 21.540986,78.2214455 21.5379297,78.0840944 C21.3907191,71.4683512 21.5288318,57.6860027 21.5288318,57.6860027 C21.5338561,57.1365856 21.9006251,56.4186231 22.3404574,56.0880819 L27.8519792,51.9460825 C28.2952033,51.6129923 28.4012247,50.9708723 28.0960815,50.5221159 C28.0960815,50.5221159 21.5379292,40.8983093 21.5379292,40.6465163 C21.5379292,40.5927731 20.0085228,27.1953675 20.0085228,27.1953675 C19.9461803,26.6491242 19.5043843,26.4292841 19.0233093,26.7034487 L16.8034244,27.968561 C14.8831675,29.0629152 14.4133435,31.3780645 15.742394,33.1421352 C15.742394,33.1421352 28.1070783,49.203679 28.1070783,51.8777919 C28.1070783,51.9777996 28.6288551,52.6810704 28.6288551,52.6810704 C28.9453593,53.123555 28.8346778,53.7416355 28.386926,54.0536528 C28.386926,54.0536528 24.8231394,56.6109661 23.1802172,57.2260177 C22.1274489,57.6201367 22.0853589,56.6911951 22.0853589,56.6911951 L21.894649,56.7843541 C21.3953012,57.0282782 20.6946427,56.8909894 20.3337419,56.4823059 L2.20448794,35.9527639 C-0.723102428,32.6375647 -0.896582455,27.129564 1.87282534,23.676393 C1.87282534,23.676393 17.7059242,2.67411291 24.275075,2.13929033 Z" id="Path-128" stroke-width="2"></path>
                    <path d="M30.844225,1.60446775 C30.844225,1.60446775 38.5082334,0 46.1722417,0 C53.8362501,0 62.0476876,1.60446775 62.0476876,1.60446775 L46.1722417,12.835742 L30.844225,1.60446775 Z" id="Path-129" stroke-width="0.7"></path>
                </g>
            </g>
        </g>
    </g>
</svg>