<?xml version="1.0" encoding="UTF-8" standalone="no"?>
<svg width="106px" height="84px" viewBox="0 0 106 84" version="1.1" xmlns="http://www.w3.org/2000/svg" xmlns:xlink="http://www.w3.org/1999/xlink" xmlns:sketch="http://www.bohemiancoding.com/sketch/ns">
    <!-- Generator: Sketch 3.3.2 (12043) - http://www.bohemiancoding.com/sketch -->
    <title>Path 127 Copy 3</title>
    <desc>Created with Sketch.</desc>
    <defs></defs>
    <g id="INTERNAL" stroke="none" stroke-width="1" fill="none" fill-rule="evenodd" sketch:type="MSPage">
        <g id="INVENTORY" sketch:type="MSArtboardGroup" transform="translate(-486.000000, -583.000000)" stroke="#FFFFFF" stroke-width="2" fill="#D8D8D8" fill-opacity="0">
            <g id="items" sketch:type="MSLayerGroup" transform="translate(481.000000, 213.000000)">
                <path d="M57.5538661,380.954711 C55.5502773,380.862625 46.8651495,371.06772 46.8651495,371.06772 L33.0691655,371.06772 L6.89808478,385.421566 C6.41812281,385.684807 6.25955575,386.288269 6.53922888,386.761506 L16.5556319,403.710332 C16.8374032,404.18712 17.4492065,404.344671 17.9288246,404.058236 L30.861808,396.334473 L30.861808,449.368344 C30.861808,451.021006 32.1978444,452.360753 33.8618472,452.360753 L80.8383475,452.360753 C82.4952234,452.360753 83.8383867,451.017369 83.8383867,449.368344 L83.8383867,396.334473 L97.0825313,404.024355 L108.671158,385.898206 L81.6310292,371.616997 L67.2832058,371.616997 C67.2832058,371.616997 59.5574549,381.046796 57.5538661,380.954711 Z" id="Path-127-Copy-3" sketch:type="MSShapeGroup"></path>
            </g>
        </g>
    </g>
</svg>