<?xml version="1.0" encoding="UTF-8" standalone="no"?>
<svg width="79px" height="115px" viewBox="0 0 79 115" version="1.1" xmlns="http://www.w3.org/2000/svg" xmlns:xlink="http://www.w3.org/1999/xlink" xmlns:sketch="http://www.bohemiancoding.com/sketch/ns">
    <!-- Generator: Sketch 3.3.2 (12043) - http://www.bohemiancoding.com/sketch -->
    <title>Wardrobe</title>
    <desc>Created with Sketch.</desc>
    <defs></defs>
    <g id="CLIENT" stroke="none" stroke-width="1" fill="none" fill-rule="evenodd" sketch:type="MSPage">
        <g id="Dashboard" sketch:type="MSArtboardGroup" transform="translate(-595.000000, -555.000000)" stroke="#FFFFFF">
            <g id="Group" sketch:type="MSLayerGroup" transform="translate(0.000000, -32.000000)">
                <g id="Dash" transform="translate(48.000000, 304.000000)" sketch:type="MSShapeGroup">
                    <g id="Dashboard">
                        <g id="user-details" transform="translate(418.000000, 238.000000)">
                            <g id="Wardrobe" transform="translate(129.531250, 45.719679)">
                                <path d="M1.83973665,2 L37.7146014,2 L37.7146014,81.3351854 L1.83973665,81.3351854 L1.83973665,2 Z" id="Path-46"></path>
                                <path d="M39.554338,2 L75.4292027,2 L75.4292027,81.3351854 L39.554338,81.3351854 L39.554338,2 Z" id="Path-46-Copy"></path>
                                <path d="M1.83973665,83.3185651 L75.4292027,83.3185651 L75.4292027,91.2520836 L1.83973665,91.2520836 L1.83973665,83.3185651 Z" id="Path-48"></path>
                                <path d="M1.83973665,95.0692596 L75.4292027,95.0692596 L75.4292027,103.002778 L1.83973665,103.002778 L1.83973665,95.0692596 Z" id="Path-48-Copy"></path>
                                <path d="M32.1953914,51.5844909 L32.1953914,76.3767363" id="Path-50"></path>
                                <path d="M45.073548,51.5844909 L45.073548,76.3767363" id="Path-50-Copy"></path>
                                <path d="M29.4357864,88.1274309 L47.833153,88.1274309" id="Path-50-Copy-2"></path>
                                <path d="M29.4357864,98.0443291 L47.833153,98.0443291" id="Path-50-Copy-3"></path>
                                <path d="M6.43907828,105.977848 L13.7980249,105.977848 L11.9582882,112.919676 L8.27881494,112.919676 L6.43907828,105.977848 Z" id="Path-54"></path>
                                <path d="M63.4709145,105.977848 L70.8298611,105.977848 L68.9901245,112.919676 L65.3106512,112.919676 L63.4709145,105.977848 Z" id="Path-54-Copy"></path>
                                <path d="M0,0.280320575 L0,104.780321 L77.2689394,104.780321 L77.2689394,0.280320575 L0,0.280320575 Z" id="Path-56"></path>
                            </g>
                        </g>
                    </g>
                </g>
            </g>
        </g>
    </g>
</svg>