<?xml version="1.0" encoding="UTF-8" standalone="no"?>
<svg width="101px" height="101px" viewBox="0 0 101 101" version="1.1" xmlns="http://www.w3.org/2000/svg" xmlns:xlink="http://www.w3.org/1999/xlink" xmlns:sketch="http://www.bohemiancoding.com/sketch/ns">
    <!-- Generator: Sketch 3.3.2 (12043) - http://www.bohemiancoding.com/sketch -->
    <title>Path 180 + Triangle 9 + Path 181</title>
    <desc>Created with Sketch.</desc>
    <defs></defs>
    <g id="Lapel-Apple" stroke="none" stroke-width="1" fill="none" fill-rule="evenodd" sketch:type="MSPage">
        <g id="Style-Lab-Partials" sketch:type="MSArtboardGroup" transform="translate(-114.000000, -625.000000)">
            <g id="Path-180-+-Triangle-9-+-Path-181" sketch:type="MSLayerGroup" transform="translate(115.000000, 626.000000)">
                <g sketch:type="MSShapeGroup">
                    <g>
                        <path d="M75,4.71475719 L0,4.71475719 L0,99.009901 L75,99.009901 L75,47.6190476 L75,80.1508722" id="Path-180" stroke="#FFFFFF"></path>
                        <polygon id="Triangle-9" fill="#FFFFFF" points="75 79.3965111 75 99.1984913 55 99.1984913 "></polygon>
                        <path d="M23,71.6643093 L26.5,70.7213579 L41.5,58.4629892 L49,58.4629892 L47.5784829,56.4523567 C47.2589956,56.0004653 47.42147,55.4975602 47.9515942,55.3223719 C47.9515942,55.3223719 53.9355939,53.4269888 56.5,51.8623291 C59.3212497,50.1409576 64,45.261669 64,45.261669 C64,45.261669 62.1070293,45.004843 61.5,44.7901933 C60.773696,44.5333673 60,43.8472419 60,43.8472419 C60,43.8472419 65.4671345,43.9454485 68,42.4328147 C70.4671345,40.9594356 81.1711301,29.0009698 88,19.8019802 C94.8288699,10.6029906 99.5,0 99.5,0 C99.5,0 88.6653305,2.20067 84,3.77180575 C79.9588761,5.13272847 73.2870906,8.53811375 73.2870906,8.53811375 C72.3001077,9.03042073 71.2347236,10.293644 70.9114037,11.3468485 L66.5885963,25.4282576 C66.2635236,26.487172 65.9240608,26.4617509 65.8335072,25.3465673 C65.8335072,25.3465673 65.5,21.7651063 65.5,19.3305045 C65.5,17.993102 66,14.1442716 66,14.1442716 C66,14.1442716 54.5663001,23.8974355 49.5,28.7600189 C46.1698645,31.9562491 40.0190154,38.7943372 40.0190154,38.7943372 C38.903944,40.0226463 38.0864871,42.3498739 38.2032911,44.0096851 C38.2032911,44.0096851 38.3171363,46.1560905 38.5,47.1475719 C38.7552802,48.5316934 39.6632864,50.9347691 39.6632864,50.9347691 C39.8492482,51.4470463 39.6206357,51.613113 39.1652445,51.3033776 C39.1652445,51.3033776 38.101895,50.6471763 37.5,49.9764262 C36.696351,49.0808421 34.5,45.7331447 34.5,45.7331447 C34.5,45.7331447 35.8948356,51.7074946 36.5,53.2767562 C37.0008105,54.5754161 37.8482842,55.3744718 37.8482842,55.3744718 C38.2082169,55.7782686 38.8279956,55.7907033 39.221423,55.4129752 L66,29.7029703 L92,5.18623291 C92,5.18623291 76.3617621,22.6751553 68,31.1173975 C59.8617621,39.333964 42.5,55.1626591 42.5,55.1626591 L22.5,72.135785 C22.5,72.135785 -0.500000111,72.135785 7,76.8505422 C14.5000001,81.5652994 44.4999983,82.5082508 46,87.223008 C47.5000017,91.9377652 31.5000008,92.4092409 31.5000008,92.4092409" id="Path-181" stroke="#FFFFFF"></path>
                    </g>
                </g>
            </g>
        </g>
    </g>
</svg>